Simulation
nRows=20
nColumns=15
endheader
time  TH_x TH_y TH_z SC_y  SC_z  SC_x  AC_y  AC_z  AC_x  GH_y  GH_z  GH_yy  EL_x  PS_y
5.745  0.000000  0.000000  0.000000  -50.209630309142646  19.075646691998102  31.62486238179365  73.72870458653608  -4.880940888630518  27.817859810009654  -9.341788459425253  62.4612159262662  -14.421595519197934  18.5041535865808  120.000000
5.80245  0.000000  0.000000  0.000000  -48.95209980244471  17.887239429013967  27.819263445933125  73.96009796432155  -4.800136514330355  27.858579716485814  -9.667436954542767  61.972968248415754  -13.71852114156571  18.803807944584513  120.000000
5.8599  0.000000  0.000000  0.000000  -47.50563778931327  16.23651349612985  23.261450581196286  74.12536910263076  -4.698904910455046  27.945369430787302  -10.2300439506611  61.36291307885222  -12.441576039172967  19.193222658627867  120.000000
5.91735  0.000000  0.000000  0.000000  -45.99903828091676  14.080314149372912  18.167325885113016  74.11565254468533  -4.637130991432  28.030494962627444  -10.995409083693689  60.71376756405991  -10.561148191647561  19.587573429172014  120.000000
5.9748  0.000000  0.000000  0.000000  -44.566108871144365  11.407576450871566  12.787352809993527  73.81966233639837  -4.691197558368275  28.045532835314837  -11.876453833765593  60.11233247665309  -8.125969233036441  19.89295677501202  120.000000
6.03225  0.000000  0.000000  0.000000  -43.29340175198164  8.256061058777878  7.392779209576907  73.14649927869506  -4.9384089614269335  27.911434056910405  -12.785125727990556  59.61781279279472  -5.270337962860031  20.030850540106425  120.000000
6.089700000000001  0.000000  0.000000  0.000000  -42.154632206491314  4.730893722523547  2.278953184605642  72.04465018102165  -5.436986459839762  27.553152205578755  -13.707360599005431  59.22147825079806  -2.1847895166381917  19.948255186287025  120.000000
6.14715  0.000000  0.000000  0.000000  -40.99074730384224  1.0371627564595536  -2.2336671366919054  70.52147668905498  -6.206928189442574  26.915013010683428  -14.70790361013827  58.803922434639894  0.92145221022541  19.611944629758046  120.000000
6.2046  0.000000  0.000000  0.000000  -39.61034992863851  -2.513351005116201  -5.821832939904327  68.65754753356477  -7.22079964455306  25.972120438947883  -15.813549402456957  58.13266423250712  3.8447629493534485  19.015089115760826  120.000000
6.26205  0.000000  0.000000  0.000000  -38.022272317025575  -5.525420240574921  -8.259300261849564  66.59991253351217  -8.407142382363977  24.7383639825051  -16.824733637176532  56.9160353781443  6.383949494832536  18.222818247148446  120.000000
6.3195  0.000000  0.000000  0.000000  -36.49827315437505  -7.617094781515281  -9.477630152513765  64.52247748376386  -9.678016401613972  23.237120577929446  -17.354764208638887  54.88780961271313  8.376558610785978  17.380159557723584  120.000000
6.37695  0.000000  0.000000  0.000000  -35.3191172071758  -8.557069977652379  -9.505150801129481  62.583302600218865  -11.02415721352492  21.516972358072238  -17.13414423467333  51.95996857680566  9.75104527521854  16.602668969530065  120.000000
6.4344  0.000000  0.000000  0.000000  -34.57187117303088  -8.375637756668965  -8.477498779041653  60.84062188285058  -12.36031215332807  19.59617647083045  -16.1178927346544  48.16048045492419  10.530577235205795  15.932254146694852  120.000000
6.49185  0.000000  0.000000  0.000000  -34.20099662651424  -7.393899926629978  -6.722016606082464  59.24267407145315  -13.309517565856012  17.365510355310832  -14.26626584900358  43.49905584386551  10.719132268889295  15.41997306698997  120.000000
6.549300000000001  0.000000  0.000000  0.000000  -34.06875374949695  -6.012553401121313  -4.678434267497725  57.70803060243904  -13.482815207755358  14.78937823402038  -11.433808723456224  38.09041867136624  10.202392757229006  15.125618635117835  120.000000
6.60675  0.000000  0.000000  0.000000  -34.06954531576223  -4.501987328626639  -2.7753365738705047  56.17188449162761  -12.761529425247579  12.06021754302894  -7.349289975011189  32.25616608717215  8.704571991759423  15.08038066769576  120.000000
6.6642  0.000000  0.000000  0.000000  -34.202723797123774  -3.0459063798537716  -1.3635876211794504  54.58558028535361  -11.237444244547405  9.44204530497461  -1.547497108062305  26.477871061742515  5.732862034337133  15.274542167047283  120.000000
6.72165  0.000000  0.000000  0.000000  -34.48569492199407  -1.793685559183352  -0.6418422911523031  52.92473308257601  -9.092115326675291  7.122795304485955  6.552805837374928  21.273315507780904  0.6362792807995334  15.654262436270226  120.000000
6.7791  0.000000  0.000000  0.000000  -34.92920548074763  -0.8159945201878653  -0.638193337439117  51.20064920132427  -6.541162152333722  5.204155352253715  17.44846928861501  17.06242057910465  -7.191958211953238  16.130720136735935  120.000000
6.83655  0.000000  0.000000  0.000000  -35.52760529649719  -0.11396972229920581  -1.2371360614198192  49.4568247877633  -3.800068648366212  3.718291582684186  31.17654706484888  14.086846160544585  -17.86052604169528  16.61176113002321  120.000000
